<svg width="95" height="12" viewBox="0 0 95 12" fill="none" xmlns="http://www.w3.org/2000/svg">
<path d="M7.952 1.08V9H7.04V4.02L7.148 1.932H7.136L4.532 9H3.716L1.112 1.932H1.1L1.208 4.02V9H0.296V1.08H1.772L3.512 5.892L4.112 7.872H4.136L4.748 5.904L6.476 1.08H7.952ZM12.7724 9.12C12.2044 9.12 11.6964 8.996 11.2484 8.748C10.8084 8.5 10.4644 8.144 10.2164 7.68C9.96844 7.208 9.84444 6.648 9.84444 6C9.84444 5.352 9.96844 4.796 10.2164 4.332C10.4644 3.86 10.8044 3.5 11.2364 3.252C11.6684 3.004 12.1604 2.88 12.7124 2.88C13.2724 2.88 13.7484 3 14.1404 3.24C14.5404 3.48 14.8444 3.808 15.0524 4.224C15.2604 4.632 15.3644 5.092 15.3644 5.604C15.3644 5.74 15.3604 5.864 15.3524 5.976C15.3444 6.088 15.3324 6.188 15.3164 6.276H10.7924C10.8404 6.908 11.0364 7.4 11.3804 7.752C11.7244 8.104 12.1804 8.28 12.7484 8.28C13.1884 8.28 13.5444 8.196 13.8164 8.028C14.0964 7.86 14.3204 7.632 14.4884 7.344L15.2444 7.788C15.0204 8.196 14.6964 8.52 14.2724 8.76C13.8564 9 13.3564 9.12 12.7724 9.12ZM12.6884 3.72C12.1844 3.72 11.7684 3.872 11.4404 4.176C11.1204 4.472 10.9164 4.888 10.8284 5.424H14.4044C14.3804 4.88 14.2124 4.46 13.9004 4.164C13.5884 3.868 13.1844 3.72 12.6884 3.72ZM17.1902 9V3H17.9702L18.1022 3.984C18.4382 3.248 19.0782 2.88 20.0222 2.88C20.1262 2.88 20.2382 2.888 20.3582 2.904C20.4862 2.92 20.5942 2.952 20.6822 3L20.5142 3.876C20.4262 3.844 20.3302 3.82 20.2262 3.804C20.1222 3.788 19.9742 3.78 19.7822 3.78C19.5342 3.78 19.2822 3.852 19.0262 3.996C18.7782 4.14 18.5702 4.36 18.4022 4.656C18.2342 4.944 18.1502 5.312 18.1502 5.76V9H17.1902ZM22.0887 9V3H22.8687L23.0007 3.984C23.3367 3.248 23.9767 2.88 24.9207 2.88C25.0247 2.88 25.1367 2.888 25.2567 2.904C25.3847 2.92 25.4927 2.952 25.5807 3L25.4127 3.876C25.3247 3.844 25.2287 3.82 25.1247 3.804C25.0207 3.788 24.8727 3.78 24.6807 3.78C24.4327 3.78 24.1807 3.852 23.9247 3.996C23.6767 4.14 23.4687 4.36 23.3007 4.656C23.1327 4.944 23.0487 5.312 23.0487 5.76V9H22.0887ZM31.9191 3L29.0991 10.008C28.8671 10.592 28.6031 11 28.3071 11.232C28.0191 11.464 27.6631 11.58 27.2391 11.58C26.9671 11.58 26.7151 11.54 26.4831 11.46C26.2591 11.388 26.0591 11.288 25.8831 11.16L26.1471 10.32C26.3071 10.464 26.4751 10.568 26.6511 10.632C26.8351 10.704 27.0151 10.74 27.1911 10.74C27.3991 10.74 27.5951 10.676 27.7791 10.548C27.9631 10.42 28.1311 10.16 28.2831 9.768L28.5951 8.988L27.9951 7.56L26.0871 3H27.1791L28.6791 6.912L29.0511 7.98L29.4831 6.792L30.8871 3H31.9191ZM39.7386 6.972C39.4906 7.652 39.0826 8.18 38.5146 8.556C37.9466 8.932 37.2906 9.12 36.5466 9.12C35.7946 9.12 35.1426 8.956 34.5906 8.628C34.0466 8.292 33.6226 7.82 33.3186 7.212C33.0226 6.604 32.8746 5.88 32.8746 5.04C32.8746 4.2 33.0226 3.476 33.3186 2.868C33.6226 2.26 34.0466 1.792 34.5906 1.464C35.1426 1.128 35.7866 0.96 36.5226 0.96C37.2906 0.96 37.9306 1.12 38.4426 1.44C38.9626 1.752 39.3466 2.208 39.5946 2.808L38.6466 3.252C38.4706 2.796 38.2146 2.452 37.8786 2.22C37.5506 1.98 37.1226 1.86 36.5946 1.86C36.0586 1.86 35.5866 1.988 35.1786 2.244C34.7706 2.492 34.4506 2.852 34.2186 3.324C33.9946 3.796 33.8826 4.368 33.8826 5.04C33.8826 6.032 34.1186 6.812 34.5906 7.38C35.0706 7.94 35.7226 8.22 36.5466 8.22C37.0746 8.22 37.5346 8.088 37.9266 7.824C38.3186 7.552 38.6026 7.148 38.7786 6.612L39.7386 6.972ZM41.4012 9V0.24H42.3612V3.9C42.5692 3.54 42.8452 3.28 43.1892 3.12C43.5332 2.96 43.9092 2.88 44.3172 2.88C44.7492 2.88 45.1412 2.964 45.4932 3.132C45.8452 3.292 46.1252 3.54 46.3332 3.876C46.5492 4.212 46.6572 4.64 46.6572 5.16V9H45.6972V5.496C45.6972 4.832 45.5532 4.372 45.2652 4.116C44.9852 3.852 44.6372 3.72 44.2212 3.72C43.9332 3.72 43.6452 3.788 43.3572 3.924C43.0692 4.06 42.8292 4.284 42.6372 4.596C42.4532 4.9 42.3612 5.308 42.3612 5.82V9H41.4012ZM48.8308 9V3H49.6108L49.7428 3.984C50.0788 3.248 50.7188 2.88 51.6628 2.88C51.7668 2.88 51.8788 2.888 51.9988 2.904C52.1268 2.92 52.2348 2.952 52.3228 3L52.1548 3.876C52.0668 3.844 51.9708 3.82 51.8668 3.804C51.7628 3.788 51.6148 3.78 51.4228 3.78C51.1748 3.78 50.9228 3.852 50.6668 3.996C50.4188 4.14 50.2108 4.36 50.0428 4.656C49.8748 4.944 49.7908 5.312 49.7908 5.76V9H48.8308ZM54.2093 1.848C53.9933 1.848 53.8173 1.784 53.6813 1.656C53.5533 1.52 53.4893 1.344 53.4893 1.128C53.4893 0.912 53.5533 0.74 53.6813 0.611999C53.8173 0.476 53.9933 0.408 54.2093 0.408C54.4253 0.408 54.5973 0.476 54.7253 0.611999C54.8613 0.74 54.9293 0.912 54.9293 1.128C54.9293 1.344 54.8613 1.52 54.7253 1.656C54.5973 1.784 54.4253 1.848 54.2093 1.848ZM54.6893 3V9H53.7293V3H54.6893ZM59.0768 9.12C58.4928 9.12 57.9528 8.996 57.4568 8.748C56.9688 8.5 56.5928 8.148 56.3288 7.692L57.1448 7.104C57.3208 7.472 57.5768 7.76 57.9128 7.968C58.2568 8.176 58.6688 8.28 59.1488 8.28C59.5728 8.28 59.9048 8.2 60.1448 8.04C60.3848 7.872 60.5048 7.656 60.5048 7.392C60.5048 7.224 60.4488 7.072 60.3368 6.936C60.2328 6.792 60.0288 6.688 59.7248 6.624L58.2848 6.324C57.7008 6.204 57.2808 6.004 57.0248 5.724C56.7768 5.444 56.6528 5.096 56.6528 4.68C56.6528 4.352 56.7448 4.052 56.9288 3.78C57.1208 3.508 57.3888 3.292 57.7328 3.132C58.0848 2.964 58.4968 2.88 58.9688 2.88C59.5608 2.88 60.0608 2.996 60.4688 3.228C60.8768 3.46 61.1808 3.788 61.3808 4.212L60.5768 4.74C60.4408 4.388 60.2208 4.132 59.9168 3.972C59.6128 3.804 59.2968 3.72 58.9688 3.72C58.5368 3.72 58.2008 3.808 57.9608 3.984C57.7208 4.16 57.6008 4.38 57.6008 4.644C57.6008 4.82 57.6608 4.984 57.7808 5.136C57.9008 5.28 58.1248 5.384 58.4528 5.448L59.9528 5.76C60.5128 5.872 60.9048 6.056 61.1288 6.312C61.3528 6.568 61.4648 6.88 61.4648 7.248C61.4648 7.816 61.2448 8.272 60.8048 8.616C60.3648 8.952 59.7888 9.12 59.0768 9.12ZM66.8449 3V3.828H64.6609V7.344C64.6609 7.64 64.7449 7.86 64.9129 8.004C65.0809 8.148 65.2969 8.22 65.5609 8.22C65.7929 8.22 65.9929 8.18 66.1609 8.1C66.3289 8.02 66.4809 7.912 66.6169 7.776L66.9529 8.58C66.7689 8.748 66.5489 8.88 66.2929 8.976C66.0449 9.072 65.7569 9.12 65.4289 9.12C65.1249 9.12 64.8409 9.068 64.5769 8.964C64.3129 8.852 64.1009 8.68 63.9409 8.448C63.7889 8.208 63.7089 7.896 63.7009 7.512V3.828H62.5009V3H63.7009V1.56L64.6609 1.296V3H66.8449ZM68.2723 9V3H69.1123L69.1723 3.936C69.3883 3.568 69.6683 3.3 70.0123 3.132C70.3643 2.964 70.7243 2.88 71.0923 2.88C71.5163 2.88 71.9163 2.976 72.2923 3.168C72.6683 3.36 72.9563 3.656 73.1562 4.056C73.2843 3.784 73.4643 3.564 73.6963 3.396C73.9283 3.22 74.1803 3.092 74.4523 3.012C74.7323 2.924 74.9963 2.88 75.2443 2.88C75.6283 2.88 75.9923 2.96 76.3363 3.12C76.6883 3.28 76.9763 3.528 77.2003 3.864C77.4243 4.2 77.5363 4.632 77.5363 5.16V9H76.5763V5.256C76.5763 4.712 76.4403 4.32 76.1683 4.08C75.8963 3.84 75.5603 3.72 75.1603 3.72C74.8483 3.72 74.5563 3.796 74.2843 3.948C74.0123 4.1 73.7923 4.324 73.6243 4.62C73.4643 4.916 73.3843 5.28 73.3843 5.712V9H72.4243V5.256C72.4243 4.712 72.2883 4.32 72.0163 4.08C71.7443 3.84 71.4083 3.72 71.0083 3.72C70.7443 3.72 70.4723 3.792 70.1923 3.936C69.9203 4.072 69.6923 4.292 69.5083 4.596C69.3243 4.9 69.2323 5.3 69.2323 5.796V9H68.2723ZM83.2138 5.124C83.2138 4.676 83.0938 4.332 82.8538 4.092C82.6138 3.844 82.2738 3.72 81.8338 3.72C81.4178 3.72 81.0658 3.812 80.7778 3.996C80.4898 4.172 80.2778 4.46 80.1418 4.86L79.3618 4.38C79.5218 3.932 79.8178 3.572 80.2498 3.3C80.6818 3.02 81.2178 2.88 81.8578 2.88C82.2898 2.88 82.6818 2.956 83.0338 3.108C83.3858 3.252 83.6618 3.476 83.8618 3.78C84.0698 4.076 84.1738 4.46 84.1738 4.932V7.836C84.1738 8.124 84.3258 8.268 84.6298 8.268C84.7818 8.268 84.9298 8.248 85.0738 8.208L85.0258 8.964C84.8658 9.044 84.6578 9.084 84.4018 9.084C84.1058 9.084 83.8498 9.012 83.6338 8.868C83.4258 8.724 83.2898 8.504 83.2258 8.208C83.0178 8.52 82.7338 8.752 82.3738 8.904C82.0138 9.048 81.6578 9.12 81.3058 9.12C80.9538 9.12 80.6258 9.06 80.3218 8.94C80.0178 8.82 79.7738 8.64 79.5898 8.4C79.4138 8.152 79.3258 7.848 79.3258 7.488C79.3258 7.04 79.4738 6.672 79.7698 6.384C80.0738 6.088 80.4938 5.888 81.0298 5.784L83.2138 5.352V5.124ZM80.3098 7.44C80.3098 7.688 80.4058 7.892 80.5978 8.052C80.7978 8.204 81.0778 8.28 81.4378 8.28C81.7498 8.28 82.0378 8.228 82.3018 8.124C82.5738 8.012 82.7938 7.848 82.9618 7.632C83.1298 7.408 83.2138 7.124 83.2138 6.78V6.144L81.4738 6.504C81.0818 6.584 80.7898 6.696 80.5978 6.84C80.4058 6.984 80.3098 7.184 80.3098 7.44ZM88.6666 9.12C88.0826 9.12 87.5426 8.996 87.0466 8.748C86.5586 8.5 86.1826 8.148 85.9186 7.692L86.7346 7.104C86.9106 7.472 87.1666 7.76 87.5026 7.968C87.8466 8.176 88.2586 8.28 88.7386 8.28C89.1626 8.28 89.4946 8.2 89.7346 8.04C89.9746 7.872 90.0946 7.656 90.0946 7.392C90.0946 7.224 90.0386 7.072 89.9266 6.936C89.8226 6.792 89.6186 6.688 89.3146 6.624L87.8746 6.324C87.2906 6.204 86.8706 6.004 86.6146 5.724C86.3666 5.444 86.2426 5.096 86.2426 4.68C86.2426 4.352 86.3346 4.052 86.5186 3.78C86.7106 3.508 86.9786 3.292 87.3226 3.132C87.6746 2.964 88.0866 2.88 88.5586 2.88C89.1506 2.88 89.6506 2.996 90.0586 3.228C90.4666 3.46 90.7706 3.788 90.9706 4.212L90.1666 4.74C90.0306 4.388 89.8106 4.132 89.5066 3.972C89.2026 3.804 88.8866 3.72 88.5586 3.72C88.1266 3.72 87.7906 3.808 87.5506 3.984C87.3106 4.16 87.1906 4.38 87.1906 4.644C87.1906 4.82 87.2506 4.984 87.3706 5.136C87.4906 5.28 87.7146 5.384 88.0426 5.448L89.5426 5.76C90.1026 5.872 90.4946 6.056 90.7186 6.312C90.9426 6.568 91.0546 6.88 91.0546 7.248C91.0546 7.816 90.8346 8.272 90.3946 8.616C89.9546 8.952 89.3786 9.12 88.6666 9.12ZM93.8548 1.08V4.512L93.7108 6.504H92.9908L92.8468 4.512V1.08H93.8548ZM93.3508 7.56C93.5828 7.56 93.7708 7.632 93.9148 7.776C94.0588 7.92 94.1308 8.108 94.1308 8.34C94.1308 8.572 94.0588 8.76 93.9148 8.904C93.7708 9.048 93.5828 9.12 93.3508 9.12C93.1188 9.12 92.9308 9.048 92.7868 8.904C92.6428 8.76 92.5708 8.572 92.5708 8.34C92.5708 8.108 92.6428 7.92 92.7868 7.776C92.9308 7.632 93.1188 7.56 93.3508 7.56Z" fill="black"/>
</svg>
