<svg xmlns="http://www.w3.org/2000/svg" viewBox="0 0 380.25 76.57"><defs><style>.cls-1{fill:#231815;}</style></defs><g id="レイヤー_2" data-name="レイヤー 2"><g id="レイヤー_1-2" data-name="レイヤー 1"><path class="cls-1" d="M106.27,15.37a12,12,0,0,1-.31,2.76c-.2.89-.42,1.33-.64,1.33s-.25-.06-.25-.2,0-.19.07-.29a8.8,8.8,0,0,0,.55-3.44,10.59,10.59,0,0,0-3.88-8.26,13.92,13.92,0,0,0-9.48-3.39q-9,0-18.53,8.87a70.85,70.85,0,0,0-6.44,6.77q-2.61,3.12-10.18,13.19Q46,47.55,38.8,51.25a13.36,13.36,0,0,1-4.14,1.65c-.14,0-.22-.09-.22-.26l.77-.58a18.72,18.72,0,0,0,5.71-7.18q2-4.14,7.11-19.6,4.35-13.2,10-18.91A.58.58,0,0,0,58.21,6c-.32-.1-1,.42-2.16,1.57Q50.59,13,43.23,27.06a93.77,93.77,0,0,1-8,13.09A37.87,37.87,0,0,1,27.11,48q-7.77,5.58-15.61,5.57A14.62,14.62,0,0,1,3.21,51.4,6.42,6.42,0,0,1,0,45.89a4.83,4.83,0,0,1,1.1-3.21,3.47,3.47,0,0,1,2.75-1.3,2.09,2.09,0,0,1,2.38,2.35,3,3,0,0,1-.78,2.06,2.43,2.43,0,0,1-1.88.87c-1.2,0-1.81-.66-1.81-2,0-.49-.09-.73-.29-.73-.39,0-.59.67-.59,2a5.71,5.71,0,0,0,3,4.93,14,14,0,0,0,7.68,1.92q9.56,0,18.76-9.93a65.21,65.21,0,0,0,6.27-7.78q2.56-3.8,10.23-16.5a59.33,59.33,0,0,1,7.27-9.77q4.05-4.39,5.78-4.4c.17,0,.25.07.25.22a.71.71,0,0,1-.14.29q-3.4,3.75-6.16,14.11-4.1,15.19-7.72,22.13A26.08,26.08,0,0,1,36.86,51.4c-.1,0-.15.07-.15.14a.5.5,0,0,0,.15.08q.84,0,4.1-2.35a39.62,39.62,0,0,0,7.28-6.66q3.34-3.88,12.09-15.9a144.49,144.49,0,0,1,9.83-12.44,46.39,46.39,0,0,1,8.07-6.94,24.74,24.74,0,0,1,14-4.66A14.53,14.53,0,0,1,102.3,6.26,11.72,11.72,0,0,1,106.27,15.37Zm-58-2.06c0,.54-.7,1.59-2.09,3.16Q43,20,40.07,20a4.5,4.5,0,0,1-3.41-1.48,5.12,5.12,0,0,1-1.39-3.65,11.43,11.43,0,0,1,1.5-5C38,7.45,38.64,5.73,38.64,4.72a3.45,3.45,0,0,0-1.76-3A8.36,8.36,0,0,0,32.26.59Q24.1.59,16.92,7.18t-7.18,14a8.64,8.64,0,0,0,2.36,6.28,8.08,8.08,0,0,0,6.07,2.44A13.67,13.67,0,0,0,24.86,28a16.1,16.1,0,0,0,5.48-4.85c.1-.12.17-.18.22-.18.2,0,.29.11.29.33q0,.74-2.34,2.82A15.43,15.43,0,0,1,18,30.51a8.63,8.63,0,0,1-6.45-2.57,9.16,9.16,0,0,1-2.49-6.66q0-8,7.34-14.61T32.48,0A8.21,8.21,0,0,1,38.1,1.79a6.26,6.26,0,0,1,2,5c0,1.56-.79,3.94-2.35,7.14a6.79,6.79,0,0,0-.8,2.67c0,1.86,1,2.79,3,2.79a6.83,6.83,0,0,0,4-1.73,13.49,13.49,0,0,0,3.58-4.22c.12-.25.24-.37.37-.37A.26.26,0,0,1,48.25,13.31ZM88.66,5.44q0,.18-1,.69a23.07,23.07,0,0,0-7.53,6.56,77,77,0,0,0-7.43,13.15Q66.63,38.73,61.85,44.37A26.74,26.74,0,0,1,50,52.46a36,36,0,0,0,5,.49q5.64,0,9-2.4t9.57-10.76q.41-.51.63-.51c.09,0,.14.09.14.22S73.28,41.32,71,44.23q-4.21,5.35-7.53,7.29a15.84,15.84,0,0,1-8.15,1.95,34.2,34.2,0,0,1-6.49-.68,15.67,15.67,0,0,1-5,.82c-1.29,0-1.94-.25-1.94-.75s.9-.91,2.71-.91a28.44,28.44,0,0,1,4,.36H49a15.7,15.7,0,0,0,6.57-4.41A53.78,53.78,0,0,0,62,37.7q7.65-14.54,12.12-20.58A42.93,42.93,0,0,1,84.52,7.23c2-1.34,3.33-2,3.92-2A.19.19,0,0,1,88.66,5.44Z"/><path class="cls-1" d="M92.12,40.52a4.5,4.5,0,0,1-.66.95l-1.58,2q-7.57,9.36-13,9.36A5.67,5.67,0,0,1,72.57,51a6.49,6.49,0,0,1-1.74-4.63q0-6.6,9.19-11.61,4.83-2.64,7.87-2.64a3.34,3.34,0,0,1,2.25.79,2.39,2.39,0,0,1,.94,1.92c0,1.76-1.15,3.25-3.45,4.49s-6.12,2.38-11.49,3.46c-1.67,2.51-2.49,4.61-2.49,6.3q0,3.15,3.4,3.15,5.81,0,14.19-11.3c.29-.39.54-.59.73-.59A.2.2,0,0,1,92.12,40.52ZM89,33.73q0-1.17-1.29-1.17c-1.29,0-3,.89-5.1,2.69a37.27,37.27,0,0,0-6.21,7,28.45,28.45,0,0,0,8.93-3.82C87.8,36.75,89,35.19,89,33.73Z"/><path class="cls-1" d="M113,40.48a13,13,0,0,1-2.2,2.69c-1.86,2-3.6,3.08-5.24,3.08q-2.79,0-2.79-3.22a10.24,10.24,0,0,1,.44-2.6,25,25,0,0,0-3.76,4q-1.44,2-5,8.06c-1.3-.1-2-.15-2.27-.15l-2.24.15,6-9.74c3-4.89,4.5-7.91,4.5-9.09q0-1-.84-1-2.06,0-7.45,7.89c-.22.34-.42.51-.59.51s-.15-.09-.15-.22a.62.62,0,0,1,.15-.29l.66-.92q5.65-7.51,7.67-7.52,2.92,0,2.93,3.77,0,2.82-3,7.47a30.34,30.34,0,0,1,3.62-3.59,18.4,18.4,0,0,1,3.47-5.45c1.37-1.47,2.61-2.2,3.71-2.2q1.14,0,1.14,1,0,1.76-5.09,5l-2.42,1.5-.44.36a10.05,10.05,0,0,0-.51,2.79c0,2,.77,3.07,2.31,3.07q2.86,0,6.24-4.74c.49-.54.79-.8.91-.8S113,40.34,113,40.48Z"/><path class="cls-1" d="M133.83,40.48a13,13,0,0,1-2.2,2.69q-2.79,3.07-5.25,3.08c-1.85,0-2.78-1.07-2.78-3.22a9.81,9.81,0,0,1,.44-2.6,25,25,0,0,0-3.76,4q-1.44,2-5,8.06c-1.29-.1-2-.15-2.27-.15l-2.23.15,6-9.74c3-4.89,4.51-7.91,4.51-9.09q0-1-.84-1-2.06,0-7.45,7.89c-.22.34-.42.51-.59.51s-.15-.09-.15-.22a.62.62,0,0,1,.15-.29l.66-.92q5.64-7.51,7.67-7.52,2.92,0,2.93,3.77,0,2.82-3,7.47a29.61,29.61,0,0,1,3.62-3.59,18.38,18.38,0,0,1,3.46-5.45c1.38-1.47,2.62-2.2,3.72-2.2.76,0,1.13.33,1.13,1,0,1.17-1.69,2.84-5.09,5-.53.34-1.34.84-2.41,1.5l-.44.36a10.05,10.05,0,0,0-.51,2.79c0,2,.77,3.07,2.31,3.07q2.85,0,6.23-4.74c.49-.54.8-.8.92-.8S133.83,40.34,133.83,40.48Z"/><path class="cls-1" d="M156.83,40.52c0,.37-1.35,2-4,5a44.87,44.87,0,0,1-11.66,8.85l-1.8,3.22Q134,67.13,128.25,71.78q-6,4.8-10.37,4.79a3.5,3.5,0,0,1-2.51-.95,3.08,3.08,0,0,1-1-2.34q0-7.36,16.95-15.24,1.4-.69,4.18-1.94l.55-.33,6.44-11.46A58.17,58.17,0,0,1,137,51.18a5.12,5.12,0,0,1-3.48,1.63,3.37,3.37,0,0,1-2.61-1.28,4.43,4.43,0,0,1-1.12-3c0-1.39.86-3.56,2.6-6.52L138,32.48a11.17,11.17,0,0,0,1.94.15,19.13,19.13,0,0,0,2.64-.26l-7.22,11.72q-3.07,5-3.07,6.52t1.5,1.65q3.94,0,12.16-14l3.36-5.75a12,12,0,0,0,2,.15,14.93,14.93,0,0,0,2.46-.26q-4.55,7.22-12.31,21.17a38,38,0,0,0,7.56-5A54.94,54.94,0,0,0,156,41q.51-.66.66-.66A.19.19,0,0,1,156.83,40.52ZM135.68,56.4q-.59.33-4.14,2.08-16.66,8.28-16.66,14.87c0,1.83,1,2.75,3.08,2.75,2.58,0,5.16-1.41,7.72-4.21s5.74-7.73,9.53-14.76Z"/><path class="cls-1" d="M220.28,11.32q0,2.37-3.3,4.94c2,2.95,3,5.68,3,8.17,0,.61-.18.91-.55.91s-.44-.4-.44-1.21a13.17,13.17,0,0,0-2.56-7.43q-5.31,4-14.45,6.83a54.67,54.67,0,0,1-16.2,2.87c-.66,0-1.23,0-1.72-.07q-5.87,8.16-5.86,15.75a10.66,10.66,0,0,0,3.2,8.16q3.21,3,8.74,3,10.43,0,18.6-10,4.95-6,4.94-11.46A6.07,6.07,0,0,0,212,27.25a6.23,6.23,0,0,0-4.57-1.69q-4.58,0-9.82,4.82t-5.25,9c0,.24.08.36.22.36a.53.53,0,0,0,.29-.14,2.84,2.84,0,0,1,1.82-.88c1.23,0,1.85.67,1.85,2,0,1.81-.88,2.71-2.64,2.71s-2.41-1-2.41-2.93c0-3.49,1.76-7,5.31-10.38S203.89,25,207.53,25q7,0,7,7.72,0,8-7.63,14.56A25.36,25.36,0,0,1,190,53.83a14.9,14.9,0,0,1-10.89-4.35,14.53,14.53,0,0,1-4.42-10.77q0-6.23,4.36-12.78Q163.19,23,163.18,13.4q0-5.72,5.9-9.55T183.76,0Q196,0,208.56,8.17A21.61,21.61,0,0,1,213,7.73C217.85,7.73,220.28,8.92,220.28,11.32Zm-12.75-3a46.59,46.59,0,0,0-23.69-6.44,24.89,24.89,0,0,0-13.57,3.66q-5.81,3.66-5.8,8.57,0,8.74,14.86,11.32Q188.57,12.57,207.53,8.31Zm8.61,7.88A27.65,27.65,0,0,0,208.56,9a43.23,43.23,0,0,0-13.37,6.43A43.91,43.91,0,0,0,184.5,25.78,58.92,58.92,0,0,0,201.43,23Q210.72,20.17,216.14,16.19Zm3.55-4.87q0-3-5.86-3a21.91,21.91,0,0,0-4.36.52,29,29,0,0,1,7.22,7Q219.69,13.26,219.69,11.32Z"/><path class="cls-1" d="M240.07,40.41a1,1,0,0,1-.37.66l-1.57,2.17q-6.9,9.57-10.27,9.57A3.66,3.66,0,0,1,225,51.54a4.61,4.61,0,0,1-1.12-3.16q0-2.57,2.79-6.71c2.9-4.27,4.36-6.81,4.36-7.61,0-1-.5-1.43-1.51-1.43q-2.19,0-6,4.32-3.66,4.14-10.07,15.67a10.36,10.36,0,0,0-1.87-.22,15.05,15.05,0,0,0-2.16.22l5.38-9.74q1.11-2.09,3.37-6.15,1.22-2,7.44-12.6l5.56-9.44a10.23,10.23,0,0,0,1.87.21,10.49,10.49,0,0,0,2.78-.36Q232,20.66,224.45,32.85l-5.68,9.45q6.89-10.21,10.88-10.22a3.36,3.36,0,0,1,2.69,1.36,5,5,0,0,1,1.12,3.29c0,1.69-1.08,4.12-3.22,7.29-2.4,3.54-3.59,5.76-3.59,6.66a1.4,1.4,0,0,0,1.58,1.58q2.85,0,9.46-9.24l1.13-1.58.66-.81c.13-.24.27-.36.44-.36S240.07,40.31,240.07,40.41Z"/><path class="cls-1" d="M261,40.48a13.47,13.47,0,0,1-2.2,2.69q-2.79,3.07-5.25,3.08-2.79,0-2.79-3.22a10.24,10.24,0,0,1,.44-2.6,24.44,24.44,0,0,0-3.75,4q-1.46,2-5,8.06c-1.3-.1-2.05-.15-2.27-.15l-2.24.15,6-9.74c3-4.89,4.5-7.91,4.5-9.09q0-1-.84-1-2.06,0-7.45,7.89c-.22.34-.42.51-.59.51s-.14-.09-.14-.22a.53.53,0,0,1,.14-.29l.66-.92q5.66-7.51,7.67-7.52c2,0,2.93,1.26,2.93,3.77q0,2.82-3,7.47a29.63,29.63,0,0,1,3.63-3.59,18.18,18.18,0,0,1,3.46-5.45c1.38-1.47,2.62-2.2,3.71-2.2q1.14,0,1.14,1,0,1.76-5.09,5l-2.42,1.5-.44.36a10.05,10.05,0,0,0-.51,2.79c0,2,.77,3.07,2.31,3.07q2.87,0,6.24-4.74c.49-.54.79-.8.92-.8A.19.19,0,0,1,261,40.48Z"/><path class="cls-1" d="M273.5,40.48a3.1,3.1,0,0,1-.36.59l-1.58,2.17q-6.88,9.57-10.52,9.57a3.79,3.79,0,0,1-2.88-1.23A4.29,4.29,0,0,1,257,48.52q0-2.12,2.52-6.44l5.72-9.71a8.68,8.68,0,0,0,1.79.26,21.23,21.23,0,0,0,2.78-.26L261.51,46a10,10,0,0,0-1.79,4.58c0,1.1.57,1.65,1.72,1.65q3.27,0,11.48-11.63c.12-.24.24-.36.37-.36A.19.19,0,0,1,273.5,40.48ZM273,25.34a3.39,3.39,0,0,1-1.08,2.4,3.21,3.21,0,0,1-2.36,1.12,1.46,1.46,0,0,1-1.65-1.65A3.28,3.28,0,0,1,269,24.88a3.38,3.38,0,0,1,2.38-1.11A1.39,1.39,0,0,1,273,25.34Z"/><path class="cls-1" d="M285.94,26.28q0,1.45-4.58,5.8a10.37,10.37,0,0,0-.22,2q0,2.11,1.94,6.74a10.22,10.22,0,0,1,1,3.88,7,7,0,0,1-3.2,5.71,12.28,12.28,0,0,1-7.6,2.42,5.55,5.55,0,0,1-4-1.41,5,5,0,0,1-1.48-3.79,8.78,8.78,0,0,1,2-5.35c1.31-1.73,2.65-2.6,4.05-2.6a1.45,1.45,0,0,1,.66.15l2.92-3.59c.88-1,2.06-2.5,3.52-4.36a13,13,0,0,1,1.9-4.39c.86-1.22,1.7-1.84,2.53-1.84C285.74,25.63,285.94,25.85,285.94,26.28Zm-5.09,14.44c0-.73,0-1.46-.08-2.18s-.07-1.75-.07-3.09a21,21,0,0,1,.15-2.75q-2.06,2.61-5.94,7.33a1.78,1.78,0,0,1,.7,1.43q0,2.16-3.55,2.92a4.52,4.52,0,0,0-2.47,1.56,3.93,3.93,0,0,0-1,2.58A3.25,3.25,0,0,0,269.6,51a3.73,3.73,0,0,0,2.64,1c2.05,0,4-1.2,5.84-3.57A12.29,12.29,0,0,0,280.85,40.72Z"/><path class="cls-1" d="M301.68,32.08l-.29.55h-4.8l-8.16,13.95a8.72,8.72,0,0,0-1.5,4c0,1.1.57,1.65,1.72,1.65q3.33,0,11.26-11.63c.17-.24.32-.36.44-.36a.19.19,0,0,1,.22.21,4.32,4.32,0,0,1-.37.59l-1.58,2.17q-6.89,9.57-10.37,9.57a3.77,3.77,0,0,1-2.88-1.25,4.4,4.4,0,0,1-1.15-3.11A11.42,11.42,0,0,1,286.16,43l6.15-10.33h-3.74l.37-.55h3.66l4.29-7.1a8.32,8.32,0,0,0,2.08.29A8.45,8.45,0,0,0,301.1,25l-4.21,7.1Z"/><path class="cls-1" d="M341.29,40.48a3.44,3.44,0,0,1-.37.59l-1.57,2.17q-6.9,9.57-10.2,9.57a3.57,3.57,0,0,1-2.82-1.28,4.92,4.92,0,0,1-1.1-3.3,9,9,0,0,1,1.39-4.43c.17-.29,1.07-1.6,2.68-3.92q3.07-4.4,3.07-5.75a1.33,1.33,0,0,0-1.5-1.5q-4.83,0-16.59,19.85a10.55,10.55,0,0,0-2-.15,18.82,18.82,0,0,0-2.57.15l5.2-8.24q5.1-8.13,5.1-10c0-1.1-.46-1.65-1.36-1.65q-2,0-6.59,5.79A98.3,98.3,0,0,0,303,52.48a12.85,12.85,0,0,0-2.16-.15,17.88,17.88,0,0,0-2.49.15l5.23-8.24Q309,35.74,309,33.73c0-.73-.28-1.1-.84-1.1q-1.8,0-7.45,7.86c-.25.34-.44.51-.59.51a.2.2,0,0,1-.15-.22,33.37,33.37,0,0,1,3.38-4.57q3.3-4.12,5.1-4.13a2.48,2.48,0,0,1,2,1.12,4.28,4.28,0,0,1,.84,2.65c0,1.42-.72,3.38-2.16,5.9q6.58-9.68,9.81-9.67a3.09,3.09,0,0,1,2.53,1.25,4.83,4.83,0,0,1,1,3.11,11.13,11.13,0,0,1-1.94,5.31q7-9.68,10.43-9.67a3.28,3.28,0,0,1,2.66,1.36,5.11,5.11,0,0,1,1.08,3.29A10.89,10.89,0,0,1,332.89,42s-1.08,1.59-3.15,4.69c-1.2,1.76-1.8,3.1-1.8,4a1.33,1.33,0,0,0,1.51,1.5q2.85,0,9.46-9.24L340,41.44l.66-.81c.13-.24.25-.36.37-.36S341.29,40.34,341.29,40.48Z"/><path class="cls-1" d="M367.11,40.48q0,.78-5.35,7.12-4.33,5.2-6.82,5.21a3.39,3.39,0,0,1-2.75-1.27,4.72,4.72,0,0,1-1.07-3.16,9.57,9.57,0,0,1,1.17-4.29,49.05,49.05,0,0,1-5.6,6.92,5.67,5.67,0,0,1-3.77,1.8,4,4,0,0,1-3.26-1.67A6.54,6.54,0,0,1,338.34,47q0-7,9.93-12.45c2.9-1.61,5.25-2.42,7-2.42a2,2,0,0,1,2.27,2.2,6.65,6.65,0,0,1-.29,1.65l1.86-3.56a8.81,8.81,0,0,0,1.94.26,16.91,16.91,0,0,0,2.57-.26L357.17,43.1q-3.37,5.64-3.37,7.44c0,1.15.47,1.72,1.43,1.72s2.54-1.12,4.69-3.36a62,62,0,0,0,6.56-8.27c.15-.24.29-.36.41-.36A.19.19,0,0,1,367.11,40.48ZM357,34.42c0-1.19-.55-1.79-1.65-1.79q-3.37,0-8.84,6.59t-5.48,10.66c0,1.59.71,2.38,2.13,2.38q2.52,0,8.75-8.39Q357,37,357,34.42Z"/><path class="cls-1" d="M379.54,26.28c0,1-1.52,2.9-4.58,5.8a11.25,11.25,0,0,0-.22,2q0,2.11,1.94,6.74a10.22,10.22,0,0,1,1,3.88,7,7,0,0,1-3.2,5.71,12.28,12.28,0,0,1-7.6,2.42,5.52,5.52,0,0,1-4-1.41,5,5,0,0,1-1.49-3.79,8.84,8.84,0,0,1,2-5.35q2-2.59,4.05-2.6a1.45,1.45,0,0,1,.66.15L371,36.22q1.32-1.57,3.51-4.36a12.84,12.84,0,0,1,1.91-4.39c.85-1.22,1.69-1.84,2.53-1.84C379.35,25.63,379.54,25.85,379.54,26.28Zm-5.09,14.44c0-.73,0-1.46-.07-2.18s-.08-1.75-.08-3.09a21,21,0,0,1,.15-2.75q-2.06,2.61-5.93,7.33a1.8,1.8,0,0,1,.69,1.43q0,2.16-3.55,2.92a4.56,4.56,0,0,0-2.47,1.56,3.92,3.92,0,0,0-1,2.58A3.22,3.22,0,0,0,363.21,51a3.71,3.71,0,0,0,2.63,1c2.06,0,4-1.2,5.85-3.57A12.34,12.34,0,0,0,374.45,40.72Z"/><path class="cls-1" d="M376.9,31.12a.7.7,0,0,1-.24.5.71.71,0,0,1-.5.24c-.16,0-.25-.08-.25-.26a.71.71,0,0,1,.25-.48.75.75,0,0,1,.51-.24A.21.21,0,0,1,376.9,31.12Zm3.35-5.78a8.79,8.79,0,0,1-1.34,2.12,24.43,24.43,0,0,0-1.94,3s-.05.07-.08.07-.05,0-.05-.06a.41.41,0,0,1,.07-.12,29.93,29.93,0,0,0,1.94-4,5.43,5.43,0,0,1,.57-1.08.64.64,0,0,1,.5-.3C380.14,25,380.25,25.11,380.25,25.34Z"/></g></g></svg>